<svg aria-hidden="true" style="position: absolute; width: 0; height: 0; overflow: hidden;" version="1.1" xmlns="http://www.w3.org/2000/svg" xmlns:xlink="http://www.w3.org/1999/xlink">
  <defs>
    <symbol id="icon-google" viewBox="0 0 32 32">
      <path stroke-linejoin="miter" stroke-linecap="butt" stroke-miterlimit="4" stroke-width="2" d="M21.494 10.236c-1.472-1.31-3.375-2.031-5.346-2.025-4.382 0-7.938 3.479-7.938 7.77s3.554 7.77 7.939 7.77c5.392 0 7.383-3.994 7.601-7.122h-6.463"></path>
      <path stroke-linejoin="round" stroke-linecap="round" stroke-miterlimit="4" stroke-width="2" d="M29.967 9.765v12.432c0 2.061-0.819 4.037-2.276 5.494s-3.433 2.276-5.494 2.276h-12.432c-2.061 0-4.037-0.819-5.494-2.276s-2.276-3.433-2.276-5.494v-12.432c0-2.061 0.819-4.037 2.276-5.494s3.433-2.276 5.494-2.276h12.432c2.061 0 4.037 0.819 5.494 2.276s2.276 3.433 2.276 5.494z"></path>
    </symbol>

    <symbol id="icon-google2" viewBox="0 0 32 32">
      <path d="M29 0h-26c-1.65 0-3 1.35-3 3v26c0 1.65 1.35 3 3 3h26c1.65 0 3-1.35 3-3v-26c0-1.65-1.35-3-3-3zM16.238 28c-6.631 0-12-5.369-12-12s5.369-12 12-12c3.238 0 5.95 1.181 8.037 3.138l-3.256 3.138c-0.894-0.856-2.45-1.85-4.781-1.85-4.1 0-7.438 3.394-7.438 7.575s3.344 7.575 7.438 7.575c4.75 0 6.531-3.413 6.806-5.175h-6.806v-4.113h11.331c0.1 0.6 0.188 1.2 0.188 1.988 0.006 6.856-4.588 11.725-11.519 11.725z"></path>
    </symbol>
  </defs>
</svg>
