<svg xmlns="http://www.w3.org/2000/svg" aria-hidden="true" style="position:absolute;width:0;height:0;overflow:hidden">
  <defs>
   <symbol id="icon-google" viewBox="0 0 28 28">
      <path d="M18.1208 9.67708C17.0169 8.69457 15.5894 8.15383 14.1115 8.15845C10.8248 8.15845 8.1582 10.768 8.1582 13.9859C8.1582 17.2038 10.8237 19.8134 14.1127 19.8134C18.157 19.8134 19.65 16.8181 19.8131 14.4719H14.9658" 
            stroke="#808080" stroke-width="1.5" fill="none"/>
      <path d="M24.475 9.32394V18.6479C24.475 20.1934 23.861 21.6757 22.7681 22.7685C21.6753 23.8614 20.193 24.4753 18.6475 24.4753H9.32356C7.77802 24.4753 6.29578 23.8614 5.20292 22.7685C4.11006 21.6757 3.49609 20.1934 3.49609 18.6479V9.32394C3.49609 7.7784 4.11006 6.29616 5.20292 5.2033C6.29578 4.11044 7.77802 3.49648 9.32356 3.49648H18.6475C20.193 3.49648 21.6753 4.11044 22.7681 5.2033C23.861 6.29616 24.475 7.7784 24.475 9.32394Z" 
            stroke="#808080" stroke-width="1.5" stroke-linecap="round" stroke-linejoin="round" fill="none"/>
    </symbol>
    <symbol id="icon-close-btn" viewBox="0 0 32 32">
      <path d="m29.858 4.818-2.519-2.524-11.16 11.2-11.16-11.2L2.5 4.818 13.677 16 2.5 27.182l2.519 2.524 11.16-11.2 11.16 11.2 2.519-2.524L18.681 16 29.858 4.818z"/>
    </symbol>
    <symbol id="icon-cat" viewBox="0 0 32 32">
      <path d="M17.999 12h1.069A7.99 7.99 0 0 0 26 16c.688 0 1.363-.088 2-.25V30c0 1.106-.894 2-2 2s-2-.894-2-2v-8.8L15.499 28h3.5c1.106 0 2 .894 2 2s-.894 2-2 2H9.998a6.002 6.002 0 0 1-6.001-6V12.031c0-1.006-.75-1.862-1.75-1.987l-.494-.063C.659 9.844-.122 8.844.015 7.75s1.138-1.875 2.231-1.737l.494.063a6.002 6.002 0 0 1 5.257 5.956v5.331A11.993 11.993 0 0 1 17.998 12zM28 13.656a6.005 6.005 0 0 1-7.094-2.481A5.992 5.992 0 0 1 20 8V.669c0-.369.294-.662.663-.669h.012c.206 0 .4.1.525.263v.006l.8 1.063 2 2.669h4l.3-.4L30 1.332l.8-1.063V.263A.666.666 0 0 1 31.325 0h.013c.369.006.662.3.662.669V8a5.988 5.988 0 0 1-4.001 5.656zM24.999 8a.997.997 0 0 0-1-1 .997.997 0 0 0-1 1 .997.997 0 0 0 1 1 .997.997 0 0 0 1-1zM28 9a.997.997 0 0 0 1-1 .997.997 0 0 0-1-1 .997.997 0 0 0-1 1 .997.997 0 0 0 1 1z"/>
    </symbol>
    <symbol id="icon-paw-print" viewBox="0 0 40 32">
      <path d="M12.805 0c-1.408 0-2.513.876-3.195 1.926-.691 1.059-1.073 2.441-1.073 3.892S8.918 8.651 9.61 9.71c.683 1.047 1.787 1.926 3.195 1.926s2.513-.876 3.196-1.926c.691-1.059 1.073-2.441 1.073-3.892s-.381-2.833-1.073-3.892C15.318.879 14.214 0 12.806 0zm14.227 0c-1.409 0-2.513.876-3.195 1.926-.691 1.059-1.073 2.441-1.073 3.892s.381 2.833 1.073 3.892c.683 1.047 1.787 1.926 3.195 1.926s2.513-.876 3.195-1.926c.691-1.059 1.073-2.441 1.073-3.892s-.381-2.833-1.073-3.892C29.544.879 28.44 0 27.032 0zM4.268 13.091c-1.409 0-2.513.876-3.195 1.926C.382 16.076 0 17.458 0 18.909s.381 2.834 1.073 3.892c.683 1.047 1.787 1.926 3.195 1.926s2.513-.876 3.196-1.926c.691-1.059 1.073-2.441 1.073-3.892s-.381-2.833-1.073-3.892c-.683-1.047-1.787-1.926-3.196-1.926zm15.65 0c-3.415 0-5.944 1.873-7.56 4.198-1.596 2.289-2.399 5.132-2.399 7.439 0 2.688 1.579 4.556 3.517 5.679 1.906 1.105 4.297 1.594 6.442 1.594s4.536-.486 6.442-1.594c1.935-1.123 3.517-2.991 3.517-5.679 0-2.307-.802-5.149-2.399-7.439-1.613-2.327-4.143-4.198-7.56-4.198zm15.651 0c-1.409 0-2.513.876-3.196 1.926-.691 1.059-1.073 2.441-1.073 3.892s.381 2.834 1.073 3.892c.683 1.047 1.787 1.926 3.196 1.926s2.513-.876 3.196-1.926c.691-1.059 1.073-2.441 1.073-3.892s-.381-2.833-1.073-3.892c-.683-1.047-1.787-1.926-3.196-1.926z"/>
    </symbol>
    <symbol id="icon-vet" viewBox="0 0 29 32">
      <path d="M14.667 0c-2.567 0-4.103.394-5.08.885-.489.246-.836.505-1.069.769-.16.197-.289.417-.383.654a1.251 1.251 0 0 0-.076.308l-.65 8.423c-.009.052.009.135 0 .192l-.076.847a1.262 1.262 0 0 0 0 .23c0 4.062 3.3 7.385 7.333 7.385s7.333-3.323 7.333-7.385v-.23l-.726-9.462a1.262 1.262 0 0 0-.076-.308s-.148-.389-.383-.654c-.233-.266-.581-.524-1.069-.769C18.768.393 17.232 0 14.665 0zm0 19.692C6.6 19.692 0 23.515 0 26.961V32h29.333v-5.039c0-3.274-5.967-6.88-13.482-7.231a17.318 17.318 0 0 0-1.184-.038zm0-17.23c2.322 0 3.482.369 3.972.615.164.082.183.114.23.154l.496 6.308c-1.124.069-2.657.308-4.698.308s-3.573-.239-4.698-.308l.496-6.308c.045-.039.066-.071.23-.154.49-.246 1.65-.615 3.972-.615zm-.994 1.23v1.462h-1.451v2h1.452v1.461h1.985V7.153h1.452V5.154h-1.452V3.692h-1.986zM11 22.462l3.133 7.077H2.445v-2.577c0-.917 3.117-3.602 8.556-4.5zm7.333 0c5.439.898 8.556 3.583 8.556 4.5v2.577H15.201l3.133-7.077z"/>
    </symbol>
    <symbol id="icon-shady-dog" viewBox="0 0 36 32">
      <path d="M21.144 3.18c.468-.955 1.188-1.759 2.079-2.32S25.141 0 26.188 0h1.906c.172 0 .338.07.46.194s.19.293.19.469v5.884l7.041 2.391c.129.044.241.129.32.242s.122.248.122.387v2.544c-.001 1.523-.596 2.984-1.653 4.061s-2.49 1.683-3.984 1.684h-4.342v.005c-2.662-.575-4.638-2.104-6.068-3.907a15.154 15.154 0 0 1-2.298-4.119l3.263-6.655zm-6.589 6.995H10.39a9.247 9.247 0 0 1-5.829-2.086L1.059 5.232a.644.644 0 0 0-.688-.079c-.11.054-.203.139-.268.245s-.099.228-.099.353v21.613c-.02.601.078 1.2.29 1.761s.532 1.073.942 1.505c.41.432.901.776 1.444 1.011a4.32 4.32 0 0 0 3.432 0c.543-.235 1.034-.579 1.444-1.011s.73-.944.942-1.505.31-1.16.29-1.761v-1.272c.001-.499.195-.977.542-1.329s.815-.55 1.304-.55h4.989a1.825 1.825 0 0 1 1.305.551 1.899 1.899 0 0 1 .541 1.33v1.272c-.02.601.078 1.2.29 1.761s.532 1.073.942 1.505c.41.432.901.776 1.444 1.011a4.32 4.32 0 0 0 3.432 0 4.403 4.403 0 0 0 1.444-1.011c.41-.432.73-.944.942-1.505s.31-1.16.29-1.761v-6.141c-3.874-.633-6.682-2.783-8.598-5.189a18.4 18.4 0 0 1-3.094-5.865l-.003.003z"/>
    </symbol>
    <symbol id="icon-car" viewBox="0 0 26 32">
      <path d="M6.456 4.741c-.156 0-.305-.062-.415-.174s-.172-.262-.172-.419V.592c0-.157.062-.308.172-.419s.259-.174.415-.174h3.522c.156 0 .305.062.415.174s.172.262.172.419v3.556c0 .157-.062.308-.172.419s-.259.174-.415.174H6.456zM1.761 9.482c-.156 0-.305-.062-.415-.174s-.172-.262-.172-.419V5.333c0-.157.062-.308.172-.419s.259-.174.415-.174h3.522c.156 0 .305.062.415.174s.172.262.172.419v3.556c0 .157-.062.308-.172.419s-.259.174-.415.174H1.761zm18.781 0c-.156 0-.305-.062-.415-.174s-.172-.262-.172-.419V5.333c0-.157.062-.308.172-.419s.259-.174.415-.174h3.522c.156 0 .305.062.415.174s.172.262.172.419v3.556c0 .157-.062.308-.172.419s-.259.174-.415.174h-3.522zm-9.977-.593a.59.59 0 0 0 .587.593h3.522c.156 0 .305-.062.415-.174s.172-.262.172-.419V5.333c0-.157-.062-.308-.172-.419s-.259-.174-.415-.174h-3.522c-.156 0-.305.062-.415.174s-.172.262-.172.419v3.556zm4.695-4.741a.59.59 0 0 0 .587.593h3.522c.156 0 .305-.062.415-.174s.172-.262.172-.419V.592c0-.157-.062-.308-.172-.419s-.259-.174-.415-.174h-3.522c-.156 0-.305.062-.415.174s-.172.262-.172.419v3.556zM0 21.824c0-.314.123-.615.343-.837l2.005-2.024 3.179-5.35a1.176 1.176 0 0 1 1.009-.576h12.755a1.167 1.167 0 0 1 1.007.576l3.179 5.35 2.005 2.024c.219.222.343.523.343.837v8.991c0 .314-.124.616-.344.838s-.519.347-.83.347h-3.522c-.311 0-.61-.125-.83-.347s-.344-.524-.344-.838V29.63H5.869v1.185c0 .314-.124.616-.344.838s-.519.347-.83.347H1.173c-.311 0-.61-.125-.83-.347s-.344-.524-.344-.838v-8.991zm4.381-1.676h17.063l-2.817-4.741H7.199l-2.817 4.741zm3.836 5.215v-.882a.94.94 0 0 0-.756-.929l-4.273-.863a.696.696 0 0 0-.583.148.723.723 0 0 0-.258.548v1.977c0 .189.074.369.206.503s.311.208.498.208h4.461c.187 0 .366-.075.498-.208s.206-.314.206-.503zm15.26 0v-1.688a.958.958 0 0 0-.343-.732.935.935 0 0 0-.778-.197l-4.179.844a.707.707 0 0 0-.569.697v1.076a.706.706 0 0 0 .207.503.7.7 0 0 0 .499.208h4.461a.696.696 0 0 0 .499-.208.722.722 0 0 0 .207-.503z"/>
    </symbol>
    <symbol id="icon-scissors" viewBox="0 0 27 32">
      <path d="M9.195 22.1a5.602 5.602 0 1 1-1.974-1.066l.98-1.696a1.135 1.135 0 0 1 .75-.539 1.125 1.125 0 0 1 .899.207l.01.009a1.122 1.122 0 0 1 .234 1.541c-.04.054-.075.11-.107.169l-.793 1.374zm-5.272 7.208c-.749-.431-1.304-1.135-1.547-1.965s-.158-1.721.238-2.489a3.362 3.362 0 0 1 4.39-1.51c.104.079.22.141.343.182a3.359 3.359 0 1 1-3.424 5.782zm3.953-15.004a7.582 7.582 0 0 0 7.127 5.365 2.12 2.12 0 0 1 1.793 1.056l.827 1.434a5.607 5.607 0 0 0 2.417 9.701 5.598 5.598 0 0 0 6.553-3.675 5.606 5.606 0 0 0-2.997-6.89 5.602 5.602 0 0 0-4.019-.233L7.741.56a1.12 1.12 0 0 0-2.052.269l-.321 1.199a7.83 7.83 0 0 0 .075 4.322l2.433 7.952zm10.498 13.774a3.372 3.372 0 0 0 2.04 1.582 3.363 3.363 0 0 0 4.128-2.384 3.365 3.365 0 0 0-.349-2.558 3.363 3.363 0 0 0-4.579-1.21 3.355 3.355 0 0 0-1.241 4.57zm-3.811-11.761a1.12 1.12 0 1 0-2.24 0 1.12 1.12 0 0 0 2.24 0z"/>
      <path d="M14.362 9.788a1.121 1.121 0 0 1 0-1.12L19.044.559a1.119 1.119 0 0 1 2.052.273l.321 1.198a7.84 7.84 0 0 1-.076 4.322l-2.351 7.686a1.122 1.122 0 0 1-2.042.233l-2.587-4.482z"/>
    </symbol>
    <symbol id="icon-sitting-dog" viewBox="0 0 31 32">
      <path d="M18.207 0h5.153c.823 0 1.629.226 2.33.653l4.478 2.725a1.197 1.197 0 0 1 .577 1.023v2.4c0 .955-.384 1.87-1.066 2.546s-1.609 1.054-2.574 1.054h-.404v14.475c1.613.214 2.742.888 3.389 2.04.361.645.514 1.344.586 1.989.07.626.07 1.28.07 1.856v.04c0 .318-.128.623-.355.849s-.536.351-.858.351H6.208c-1.358.001-2.678-.438-3.759-1.251S.587 28.797.225 27.503c-.362-1.294-.284-2.67.221-3.916s1.409-2.294 2.575-2.983a1.226 1.226 0 0 1 1.666.412c.166.273.215.6.137.909a1.201 1.201 0 0 1-.553.738c-.71.419-1.26 1.057-1.568 1.815s-.355 1.596-.135 2.384c.22.788.695 1.482 1.353 1.977s1.461.762 2.288.762c.516 0 .836-.133 1.05-.282.225-.157.401-.381.536-.651a3.02 3.02 0 0 0 .303-1.104v-.056l.006-.229c.047-1.175.188-2.345.421-3.499.421-2.066 1.289-4.749 3.158-6.622 1.372-1.376 2.118-3.39 2.503-5.382.383-1.966.383-3.762.383-4.574v-3.6c0-.955.384-1.87 1.066-2.546S17.244.002 18.209.002zm-7.685 27.642v.01l-.002.016-.003.045-.011.144a5.571 5.571 0 0 1-.474 1.744h11.73c-.146-.79-.55-1.61-1.639-2.112l-.053-.026a2.774 2.774 0 0 0-.728-.186 8.112 8.112 0 0 0-1.134-.088l-.686.01h-.097a1.227 1.227 0 0 1-.888-.321 1.197 1.197 0 0 1-.033-1.724 1.218 1.218 0 0 1 .876-.354l.1-.002.728-.01c.38 0 .801.026 1.213.075v-3.659c0-.318.128-.623.355-.849s.536-.352.858-.352.63.126.858.352c.227.225.355.53.355.849v4.486c1.723 1.091 2.223 2.725 2.367 3.909h4.084a7.85 7.85 0 0 0-.034-.432c-.053-.482-.152-.832-.296-1.088-.21-.374-.701-.88-2.48-.88-.322 0-.63-.126-.858-.352s-.355-.53-.355-.849v-16.8c0-.318.128-.623.355-.848s.536-.351.858-.351h1.618c.322 0 .63-.126.858-.351s.355-.53.355-.848V5.072l-3.901-2.376A2.04 2.04 0 0 0 23.36 2.4h-5.155c-.322 0-.63.127-.857.352s-.355.53-.355.848v3.571c.009.324.126.635.332.886.163.182.421.342.882.342.464 0 .733-.162.899-.35a1.4 1.4 0 0 0 .314-.93c0-.318.128-.623.355-.849s.536-.351.858-.351.63.126.858.351c.227.225.355.53.355.849 0 .886-.286 1.8-.916 2.51-.647.731-1.592 1.17-2.724 1.17a3.816 3.816 0 0 1-1.383-.246c-.064.56-.149 1.118-.256 1.672-.424 2.186-1.296 4.749-3.16 6.618-1.367 1.37-2.116 3.488-2.506 5.408a20.633 20.633 0 0 0-.38 3.296v.094z"/>
    </symbol>
    <symbol id="icon-dog-house" viewBox="0 0 32 32">
      <path d="M16 0 0 12.869v2.855L16 2.852l16 12.872v-2.855L16 0zm0 4.457L3.325 14.651v17.348h6.511c.007-2.249.055-5.537.707-8.427.36-1.581.893-3.057 1.759-4.179.873-1.128 2.126-1.88 3.699-1.88s2.826.752 3.699 1.88c.866 1.121 1.399 2.598 1.759 4.179.651 2.89.7 6.177.706 8.427h6.511V14.651L16.001 4.457zm-6.379 7.43c.276.007.564.06.838.153.305.103.582.253.799.432s.365.382.427.585h8.63c.063-.202.211-.405.427-.585s.493-.329.799-.432a2.83 2.83 0 0 1 .838-.153c.296-.006.567.042.785.138s.372.236.448.406c.099.218.064.473-.1.722s-.447.476-.8.643c.306.171.543.388.676.618s.156.463.065.663c-.056.124-.153.233-.288.32s-.302.151-.495.188c-.192.037-.405.046-.626.027s-.446-.066-.662-.138c-.343-.116-.648-.29-.873-.499s-.358-.441-.381-.664h-8.256c-.023.223-.156.455-.381.664s-.53.383-.873.499c-.216.072-.441.119-.662.138s-.434.01-.626-.027-.361-.101-.495-.188-.232-.196-.288-.32c-.091-.2-.068-.433.065-.663s.37-.447.676-.618c-.353-.167-.636-.394-.8-.643s-.2-.504-.1-.722c.076-.17.231-.31.448-.406s.488-.143.784-.138z"/>
    </symbol>
    <symbol id="icon-dog-on-the-leash" viewBox="0 0 34 32">
      <path d="M1.421.292a1.002 1.002 0 0 0 0 1.412l9.971 10.02c-.802.007-1.634-.004-2.518-.016-.771-.01-1.581-.02-2.444-.02-2.369 0-4.012.935-5.036 2.422C.415 15.533.077 17.349.013 19.023c-.067 1.692.142 3.365.362 4.598.115.648.254 1.292.417 1.93l.007.022v5.38a.991.991 0 0 0 .994.998h4.306a.993.993 0 0 0 .994-.998c0-.846-.127-1.495-.368-2.015a3.037 3.037 0 0 0-.818-1.061l-.145-.128c1.707-.988 2.71-1.814 3.5-2.869.421-.561.763-1.162 1.117-1.828.139-.263.276-.527.412-.791.133-.258.272-.527.424-.817l6.808 2.267v5.519c0 .637.1 1.298.518 1.827.431.547 1.046.759 1.62.854.566.093 1.256.096 2.016.084l.771-.015a91.695 91.695 0 0 1 2.031-.028c.407 0 .839-.177 1.101-.594.218-.346.228-.719.208-.956-.041-.489-.258-1.014-.513-1.45a4.987 4.987 0 0 0-1.066-1.292c-.41-.345-.976-.676-1.643-.699v-.004c-.006-.182 0-.365.018-.546.032-.316.07-.631.115-.945.101-.761.233-1.738.275-2.794.908-.391 1.633-.829 2.176-1.381.696-.709 1.016-1.53 1.141-2.459.119-.879.069-1.91.002-3.063l-.02-.337a79.405 79.405 0 0 1-.124-2.769c1.08.274 2.27.318 3.298.318 2.007 0 2.981-1.709 3.415-2.883a9.922 9.922 0 0 0 .451-1.712c.042-.24.075-.482.099-.725l.004-.048.002-.014v-.007a.993.993 0 0 0-.67-1.018l-.451-.156c-.993-.342-1.985-.685-2.977-1.03-.166-.514-.473-1.002-.797-1.399-.51-.626-1.213-1.223-2.009-1.598-.795-.372-1.781-.566-2.752-.188-.985.383-1.726 1.264-2.203 2.554-.765 2.072-1.62 3.492-2.555 4.48-.924.976-1.963 1.57-3.17 1.934a11.86 11.86 0 0 1-2.257.428L2.826.292a.991.991 0 0 0-1.406 0zm15.486 12.79c1.502-.453 2.851-1.217 4.036-2.47 1.176-1.242 2.151-2.924 2.978-5.16.352-.951.77-1.276 1.057-1.388.303-.118.704-.095 1.192.135s.964.623 1.314 1.052c.38.467.474.803.474.887a1.004 1.004 0 0 0 .662.941c.815.288 1.631.572 2.448.853l.758.262a7.607 7.607 0 0 1-.328 1.207c-.394 1.059-.911 1.583-1.553 1.583-1.327 0-2.551-.089-3.423-.458-.416-.177-.704-.397-.891-.661-.183-.257-.323-.627-.323-1.202h-1.987c0 .924.234 1.716.693 2.363.187.261.398.488.633.681.007 1.482.078 2.73.138 3.771h-6.848l-2.113-2.124c.368-.074.729-.164 1.083-.27zm2.42 8.96-.809-.27v-4.299h6.355c.004.419-.01.776-.054 1.091-.081.604-.258.991-.586 1.325-.363.369-.981.747-2.092 1.168-.189.072-.352.199-.466.366s-.176.365-.177.568c0 1.178-.131 2.145-.248 3.017-.059.426-.113.831-.148 1.226-.045.511-.074 1.168.177 1.714.148.331.401.605.718.778.307.158.647.237.992.23.046 0 .199.031.441.236.25.219.461.478.626.767l.001.003c-.427.006-.821.013-1.182.022l-.732.014c-.777.013-1.298.002-1.663-.058a1.269 1.269 0 0 1-.331-.09.282.282 0 0 1-.044-.026l-.002-.001-.007-.006c-.002-.003-.087-.113-.087-.587v-6.24c0-.21-.066-.414-.188-.585s-.295-.298-.493-.364zm-6.006-8.38 3.211 3.226v4.224l-5.484-1.827a.997.997 0 0 0-1.185.469c-.325.597-.608 1.144-.857 1.624-.138.268-.265.513-.383.735-.341.643-.626 1.133-.95 1.567-.626.834-1.472 1.553-3.38 2.608a1.01 1.01 0 0 0-.482.624c-.149.576-.176 1.132.074 1.645.19.389.524.666.672.789l.014.011.034.029c.149.13.24.227.318.392.026.057.048.116.066.177H2.787v-4.298l3.22-7.04-1.806-.834-2.033 4.443c-.127-.959-.212-2.047-.169-3.125.059-1.516.363-2.887 1.029-3.855.622-.904 1.629-1.562 3.4-1.562.801 0 1.59.01 2.358.02a95.91 95.91 0 0 0 3.297.006c.419-.009.831-.026 1.237-.05z"/>
    </symbol>
    <symbol id="icon-mam-dog" viewBox="0 0 31 32">
      <path d="M20.686 0c-.659 0-1.626.19-2.457.787-.879.635-1.538 1.684-1.538 3.208v2.503c.007.349.115.688.312.977.188.262.511.519 1.184.519s.997-.258 1.184-.519c.196-.288.305-.628.312-.977a1.001 1.001 0 0 1 1.705-.706.998.998 0 0 1 .292.706c0 .577-.164 1.418-.687 2.143-.559.779-1.482 1.35-2.806 1.35a3.698 3.698 0 0 1-1.646-.359c-.286 2.221-1.118 5.205-3.553 7.637-2.169 2.171-3.234 4.859-3.757 6.956a18.548 18.548 0 0 0-.519 3.427l-.008.22v.062l-.002.02v.008l-.004.058a2.548 2.548 0 0 1-.03.246c-.04.259-.12.511-.236.747a1.595 1.595 0 0 1-.549.647c-.24.16-.603.3-1.178.3a4 4 0 0 1-3.79-2.731 3.995 3.995 0 0 1 1.393-4.459 1.005 1.005 0 0 0 .367-1.048.993.993 0 0 0-.459-.611.987.987 0 0 0-.757-.107.993.993 0 0 0-.351.169 5.996 5.996 0 0 0-2.089 6.689 5.99 5.99 0 0 0 5.686 4.096h15.978v-.999c0-.809-.376-2.089-1.464-2.66a3.189 3.189 0 0 0-1.532-.335H17.69a1.001 1.001 0 0 1-.706-1.705.998.998 0 0 1 .706-.292h1.997c.352 0 .684.027.999.08v-5.073a1.001 1.001 0 0 1 1.705-.706 1 1 0 0 1 .293.706v5.888c1.578 1.138 1.997 3.032 1.997 4.098v.999h4.993a1.001 1.001 0 0 0 .999-.999c0-1.738-.591-3.042-1.608-3.889a4.86 4.86 0 0 0-2.387-1.029V9.988h.999a2.996 2.996 0 0 0 2.995-2.995V4.562a1.992 1.992 0 0 0-.969-1.711L26.142.714a4.998 4.998 0 0 0-2.568-.711h-2.888z"/>
    </symbol>
    <symbol id="icon-logo" viewBox="0 0 50 32">
      <path d="M20.686 0c-.659 0-1.626.19-2.457.787-.879.635-1.538 1.684-1.538 3.208v2.503c.007.349.115.688.312.977.188.262.511.519 1.184.519s.997-.258 1.184-.519c.196-.288.305-.628.312-.977a1.001 1.001 0 0 1 1.705-.706.998.998 0 0 1 .292.706c0 .577-.164 1.418-.687 2.143-.559.779-1.482 1.35-2.806 1.35a3.698 3.698 0 0 1-1.646-.359c-.286 2.221-1.118 5.205-3.553 7.637-2.169 2.171-3.234 4.859-3.757 6.956a18.548 18.548 0 0 0-.519 3.427l-.008.22v.062l-.002.02v.008l-.004.058a2.548 2.548 0 0 1-.03.246c-.04.259-.12.511-.236.747a1.595 1.595 0 0 1-.549.647c-.24.16-.603.3-1.178.3a4 4 0 0 1-3.79-2.731 3.995 3.995 0 0 1 1.393-4.459 1.005 1.005 0 0 0 .367-1.048.993.993 0 0 0-.459-.611.987.987 0 0 0-.757-.107.993.993 0 0 0-.351.169 5.996 5.996 0 0 0-2.089 6.689 5.99 5.99 0 0 0 5.686 4.096h15.978v-.999c0-.809-.376-2.089-1.464-2.66a3.189 3.189 0 0 0-1.532-.335H17.69a1.001 1.001 0 0 1-.706-1.705.998.998 0 0 1 .706-.292h1.997c.352 0 .684.027.999.08v-5.073a1.001 1.001 0 0 1 1.705-.706 1 1 0 0 1 .293.706v5.888c1.578 1.138 1.997 3.032 1.997 4.098v.999h4.993a1.001 1.001 0 0 0 .999-.999c0-1.738-.591-3.042-1.608-3.889a4.86 4.86 0 0 0-2.387-1.029V9.988h.999a2.996 2.996 0 0 0 2.995-2.995V4.562a1.992 1.992 0 0 0-.969-1.711L26.142.714a4.998 4.998 0 0 0-2.568-.711h-2.888z"/>
      <path d="M44.404 31.877h1.54a3.984 3.984 0 0 0 3.662-2.401 3.994 3.994 0 0 0-.746-4.315l-1.204-1.292a3.288 3.288 0 0 1 .078-4.568l1.183-1.183a.753.753 0 0 0-.009-1.059.753.753 0 0 0-1.059-.009l-1.182 1.183a4.8 4.8 0 0 0-.115 6.667l1.204 1.292a2.486 2.486 0 0 1-.453 3.767 2.487 2.487 0 0 1-1.359.408h-.76c.003-.308.001-.695-.012-1.136-.039-1.148-.166-2.694-.529-4.252-.363-1.549-.97-3.17-2.01-4.418-.926-1.112-2.185-1.911-3.841-2.097v-4.436a3.307 3.307 0 0 0-3.305-3.303c-.768 0-1.39.624-1.39 1.393v.73h-1.779c-.997 0-1.921.515-2.446 1.363l-.657 1.061c-1.15 1.857.103 4.237 2.229 4.39v9.87a2.347 2.347 0 0 0 2.347 2.348h.836v-2.348a3.943 3.943 0 0 1 3.94-3.941h1.327a.757.757 0 0 1 .755.755.757.757 0 0 1-.755.755h-1.327a2.43 2.43 0 0 0-2.428 2.43v2.348h8.266z"/>
    </symbol>
    <symbol id="icon-viber" viewBox="0 0 32 32">
      <path d="M20.859 15.205c.016-1.989-1.625-3.813-3.659-4.065l-.133-.02a1.886 1.886 0 0 0-.309-.035c-.417 0-.528.301-.557.481a.577.577 0 0 0 .08.438c.139.193.381.227.576.256.057.008.112.015.156.027 1.828.42 2.444 1.083 2.744 2.953.008.047.011.103.013.163.013.223.041.688.527.688a.73.73 0 0 0 .128-.011c.452-.071.437-.496.431-.7a1.218 1.218 0 0 1 0-.148l.003-.027.001-.001z"/>
      <path d="M16.641 10.409c.053.004.107.008.148.015 3 .477 4.381 1.944 4.764 5.067.007.053.007.117.008.187.004.244.012.751.54.761h.016a.518.518 0 0 0 .392-.153c.164-.177.153-.44.144-.653a1.805 1.805 0 0 1-.004-.143c.037-3.193-2.64-6.089-5.731-6.196l-.037.001a.219.219 0 0 1-.036.003c-.031 0-.069-.003-.109-.005a1.714 1.714 0 0 0-.16-.008c-.492 0-.585.36-.597.576-.027.497.439.533.663.549zm4.766 9.116a9.132 9.132 0 0 1-.191-.153c-.328-.272-.677-.523-1.013-.765l-.211-.152c-.432-.312-.82-.465-1.187-.465-.493 0-.924.283-1.28.839-.157.245-.349.365-.584.365a1.138 1.138 0 0 1-.471-.121c-1.393-.653-2.389-1.653-2.959-2.973-.275-.64-.187-1.056.299-1.396.275-.192.787-.551.751-1.237-.04-.78-1.708-3.127-2.411-3.393-.3-.113-.63-.114-.931-.003-.807.28-1.387.773-1.676 1.423-.28.629-.267 1.367.037 2.135.876 2.221 2.107 4.157 3.661 5.755 1.52 1.564 3.389 2.844 5.555 3.807.195.087.4.133.549.168l.127.032a.189.189 0 0 0 .053.008h.017c1.019 0 2.241-.96 2.617-2.056.329-.96-.272-1.433-.755-1.813v-.001zm-4.316-6.579c-.173.004-.537.013-.665.395-.059.179-.052.333.021.46.108.187.316.244.504.275.683.113 1.035.504 1.104 1.227.033.339.253.573.536.573a.685.685 0 0 0 .064-.003c.34-.043.504-.3.489-.767.005-.488-.241-1.04-.661-1.48-.421-.443-.929-.692-1.392-.68z"/>
      <path d="M8.001 5.333A2.668 2.668 0 0 0 5.334 8v16a2.668 2.668 0 0 0 2.667 2.667h16A2.668 2.668 0 0 0 26.668 24V8a2.668 2.668 0 0 0-2.667-2.667h-16zm0-2.667h16a5.334 5.334 0 0 1 5.333 5.333v16a5.332 5.332 0 0 1-5.333 5.333h-16a5.334 5.334 0 0 1-5.333-5.333v-16a5.334 5.334 0 0 1 5.333-5.333z"/>
    </symbol>
    <symbol id="icon-baby-dog" viewBox="0 0 32 32">
      <path d="M23.53 31.815h2.31a5.99 5.99 0 0 0 5.494-3.602 5.984 5.984 0 0 0-1.119-6.473l-1.807-1.938a4.934 4.934 0 0 1 .118-6.852l1.775-1.775a1.13 1.13 0 0 0-.014-1.588 1.135 1.135 0 0 0-1.588-.014l-1.772 1.775a7.2 7.2 0 0 0-.172 10l1.807 1.938a3.729 3.729 0 0 1-.679 5.65 3.723 3.723 0 0 1-2.039.612h-1.14c.005-.462.002-1.043-.018-1.704-.059-1.723-.249-4.041-.793-6.378-.544-2.323-1.455-4.755-3.015-6.627-1.389-1.668-3.278-2.867-5.762-3.146V5.038A4.965 4.965 0 0 0 10.159.083a2.088 2.088 0 0 0-2.085 2.09v1.095H5.406a4.317 4.317 0 0 0-3.67 2.044L.75 6.903c-1.725 2.786.154 6.356 3.343 6.584v14.805a3.52 3.52 0 0 0 3.52 3.522h1.253v-3.522a5.911 5.911 0 0 1 5.909-5.911h1.99a1.137 1.137 0 0 1 1.133 1.133 1.137 1.137 0 0 1-1.133 1.133h-1.99a3.644 3.644 0 0 0-3.642 3.645v3.522h12.398z"/>
    </symbol>
    <symbol id="icon-instagram" viewBox="0 0 33 32">
      <path d="M16.616 0C12.1 0 11.537.021 9.769.093 7.994.177 6.794.442 5.735.838a8.178 8.178 0 0 0-2.942 1.849A7.735 7.735 0 0 0 .873 5.52C.462 6.54.187 7.696.099 9.405c-.08 1.703-.097 2.244-.097 6.593s.022 4.891.097 6.593c.087 1.704.362 2.865.774 3.885a7.843 7.843 0 0 0 1.92 2.833 8.085 8.085 0 0 0 2.942 1.849c1.059.391 2.265.661 4.034.745 1.768.077 2.33.093 6.847.093s5.079-.021 6.847-.093c1.77-.084 2.975-.355 4.034-.745a8.178 8.178 0 0 0 2.942-1.849 7.69 7.69 0 0 0 1.92-2.833c.406-1.02.686-2.181.774-3.885.08-1.703.097-2.244.097-6.593s-.022-4.891-.097-6.593c-.087-1.704-.369-2.871-.774-3.885a7.822 7.822 0 0 0-1.92-2.833A8.042 8.042 0 0 0 27.497.838C26.438.442 25.232.177 23.463.093 21.695.016 21.133 0 16.616 0zm0 2.88c4.435 0 4.965.021 6.718.093 1.617.073 2.497.333 3.082.553a5.207 5.207 0 0 1 1.915 1.197 4.91 4.91 0 0 1 1.238 1.839c.228.563.498 1.411.574 2.968.075 1.688.097 2.199.097 6.469s-.022 4.781-.103 6.469c-.087 1.557-.357 2.405-.585 2.968a5.198 5.198 0 0 1-1.245 1.844 5.26 5.26 0 0 1-1.915 1.192c-.577.22-1.47.48-3.094.553-1.762.072-2.281.093-6.728.093s-4.965-.021-6.729-.099c-1.617-.084-2.509-.344-3.094-.563-.789-.303-1.33-.641-1.91-1.199-.585-.563-.956-1.099-1.243-1.844-.233-.556-.498-1.416-.585-2.979-.059-1.677-.087-2.197-.087-6.459 0-4.26.028-4.781.087-6.479.086-1.563.352-2.421.585-2.979.287-.761.659-1.281 1.243-1.844.578-.557 1.12-.917 1.91-1.199.585-.219 1.455-.479 3.078-.557 1.762-.061 2.281-.083 6.722-.083l.069.046zm0 4.907c-1.12 0-2.229.212-3.264.624s-1.975 1.018-2.767 1.78c-.792.763-1.42 1.668-1.849 2.665s-.649 2.065-.648 3.143c0 1.079.22 2.147.648 3.143s1.057 1.902 1.849 2.665 1.732 1.368 2.767 1.78a8.85 8.85 0 0 0 6.528 0c1.035-.413 1.975-1.018 2.768-1.78s1.42-1.668 1.849-2.665a7.946 7.946 0 0 0 0-6.286c-.429-.997-1.057-1.902-1.849-2.665s-1.733-1.368-2.767-1.78-2.144-.625-3.264-.624zm0 13.546c-3.061 0-5.538-2.385-5.538-5.333s2.477-5.333 5.538-5.333c3.061 0 5.538 2.385 5.538 5.333s-2.477 5.333-5.538 5.333zM27.482 7.459c-.001.51-.211.998-.586 1.358s-.882.563-1.411.563c-.262 0-.521-.05-.763-.146s-.461-.238-.647-.416c-.185-.178-.332-.39-.432-.623a1.86 1.86 0 0 1 .432-2.091c.185-.179.405-.32.647-.416a2.07 2.07 0 0 1 .763-.146c1.098 0 1.997.86 1.997 1.917z"/>
    </symbol>
       <symbol id="icon-verified" viewBox="0 0 32 32">
      <path d="M16 0a4.783 4.783 0 0 1 3.376 1.4l1.429 1.429a1.6 1.6 0 0 0 1.114.461h2.019a4.775 4.775 0 0 1 4.774 4.774v2.019c.002.417.168.817.461 1.114l1.429 1.429a4.775 4.775 0 0 1 0 6.752l-1.429 1.429a1.578 1.578 0 0 0-.461 1.113v2.019a4.777 4.777 0 0 1-4.774 4.774h-2.019a1.603 1.603 0 0 0-1.114.461l-1.429 1.429a4.775 4.775 0 0 1-6.752 0l-1.429-1.429a1.578 1.578 0 0 0-1.114-.461H8.062a4.775 4.775 0 0 1-4.774-4.774V21.92a1.598 1.598 0 0 0-.461-1.113l-1.429-1.429a4.775 4.775 0 0 1 0-6.752l1.429-1.429c.293-.297.458-.697.461-1.114V8.064a4.78 4.78 0 0 1 1.398-3.378 4.769 4.769 0 0 1 3.378-1.398h2.018a1.603 1.603 0 0 0 1.114-.461l1.429-1.429A4.773 4.773 0 0 1 16.001 0zm5.893 12.367a1.604 1.604 0 0 0 .035-2.299 1.615 1.615 0 0 0-1.157-.468 1.6 1.6 0 0 0-1.141.505l-6.805 6.804-2.043-2.043a1.6 1.6 0 0 0-2.264 2.262l3.176 3.174a1.6 1.6 0 0 0 2.262 0l7.936-7.937z"/>
    </symbol>
  </defs>
</svg>