<svg aria-hidden="true" style="position: absolute; width: 0; height: 0; overflow: hidden;" version="1.1" xmlns="http://www.w3.org/2000/svg" xmlns:xlink="http://www.w3.org/1999/xlink">
<defs>
<symbol id="icon-acc-photo-load" viewBox="0 0 32 32">
<path d="M7.126 1.452c-1.43 0.658-2.723 1.952-3.404 3.427-0.499 1.067-0.545 1.384-0.545 5.583 0 4.902 0.113 5.56 1.384 7.376 0.386 0.567 1.089 1.316 1.589 1.634 0.794 0.567 0.862 0.704 0.885 1.657v1.044l-1.884 0.113c-2.247 0.113-3.427 0.681-4.312 2.043-0.704 1.112-0.885 2.156-0.794 4.721 0.045 1.566 0.136 1.929 0.431 1.997 0.34 0.068 0.386-0.272 0.454-2.723 0.091-2.519 0.136-2.86 0.635-3.563 0.794-1.089 2.065-1.611 4.062-1.611 1.384 0 1.793 0.091 2.474 0.545l0.817 0.567 0.862-0.454c1.089-0.545 1.362-0.545 2.451 0l0.862 0.454 0.817-0.567c0.59-0.409 1.112-0.545 1.952-0.545 1.089 0 1.157 0.045 1.157 0.567 0 0.726 0.749 1.475 1.475 1.475 0.454 0 0.567 0.113 0.567 0.567 0 0.295 0.159 0.908 0.363 1.339 0.363 0.726 0.363 0.84 0 1.702-0.522 1.339-0.499 2.292 0.091 2.292 0.363 0 0.454-0.159 0.454-0.681 0-0.386 0.159-0.999 0.34-1.362 0.409-0.817 1.089-0.704 1.475 0.25 0.999 2.406 4.448 2.406 5.447 0 0.409-1.021 1.089-1.067 1.498-0.136 0.182 0.431 0.318 1.044 0.318 1.362 0 0.431 0.113 0.567 0.477 0.567 0.454 0 0.477-0.091 0.363-1.021-0.091-0.567-0.295-1.316-0.454-1.657-0.295-0.545-0.272-0.681 0.091-1.294 0.25-0.386 0.431-0.953 0.431-1.316 0-0.499 0.113-0.613 0.522-0.613 0.295 0 0.772-0.25 1.044-0.545 0.499-0.522 0.522-0.704 0.431-2.678-0.136-3.041-1.067-4.652-3.245-5.651-0.749-0.34-1.498-0.431-4.221-0.431-3.087 0-3.359 0.045-4.448 0.567-1.816 0.908-3.018 2.905-3.018 5.038 0 0.749-0.023 0.749-1.021 0.749h-1.021v-1.089c0.023-0.976 0.091-1.112 0.885-1.679 1.089-0.726 2.247-2.383 2.655-3.767 0.454-1.498 0.454-9.35-0.023-10.235-0.431-0.862-1.611-1.838-2.406-1.997-0.635-0.113-0.658-0.182-0.658-1.339v-1.226h-3.563c-3.291 0-3.677 0.045-4.743 0.545zM14.525 2.837c0 1.157 0.045 1.248 0.635 1.384 1.271 0.272 1.861 0.613 2.315 1.316 0.431 0.726 0.885 3.313 0.567 3.313-0.091 0-0.454-0.25-0.84-0.567l-0.658-0.567-0.862 0.431c-1.18 0.613-3.404 1.157-4.675 1.157-1.294 0-3.495-0.545-4.721-1.18l-0.885-0.454-0.794 0.772-0.817 0.749 0.136-1.384c0.113-1.521 0.817-3.313 1.589-4.13 1.384-1.498 3.109-2.020 6.809-2.065l2.201-0.023v1.248zM7.603 9.6c2.065 0.704 4.948 0.658 7.149-0.113l1.702-0.613 0.885 0.84 0.862 0.84-0.136 2.27c-0.182 2.769-0.772 4.153-2.428 5.651-1.316 1.18-2.837 1.748-4.63 1.748s-3.313-0.567-4.63-1.748c-1.657-1.498-2.292-2.95-2.451-5.651l-0.136-2.179 0.885-0.908c0.567-0.59 0.999-0.84 1.226-0.749 0.182 0.091 0.953 0.363 1.702 0.613zM27.166 17.611c0.477 0.386 1.089 1.135 1.384 1.679 0.454 0.908 0.499 1.339 0.499 4.108 0 2.973-0.023 3.109-0.567 3.699-0.749 0.817-2.156 0.84-2.95 0.023-0.681-0.658-0.704-0.84-0.113-1.362 0.25-0.227 0.454-0.658 0.454-0.953 0-0.499-0.091-0.522-1.362-0.522-1.294 0-1.362 0.023-1.362 0.567 0 0.318 0.204 0.749 0.454 0.953 0.567 0.499 0.567 0.567-0.113 1.294-0.749 0.817-2.156 0.84-2.95 0.023-0.545-0.522-0.567-0.658-0.567-3.677 0-3.404 0.272-4.426 1.384-5.447 1.067-0.976 1.816-1.226 3.427-1.157 1.294 0.068 1.657 0.182 2.383 0.772zM20.357 17.748c-0.999 1.339-1.157 1.861-1.271 4.153-0.136 2.065-0.182 2.27-0.59 2.27s-0.454-0.182-0.522-1.634c-0.113-2.655 0.499-4.108 2.088-5.084 0.93-0.567 0.93-0.545 0.295 0.295zM30.298 18.814c0.635 0.908 0.681 1.089 0.681 3.155 0 2.043-0.023 2.201-0.454 2.201-0.409 0-0.477-0.204-0.59-2.156-0.136-2.338-0.363-3.087-1.294-4.312l-0.59-0.772 0.772 0.454c0.431 0.25 1.089 0.885 1.475 1.43zM11.007 20.993c0.999 0 2.088-0.068 2.451-0.182 0.59-0.159 0.613-0.136 0.613 0.749 0 0.704-0.113 0.976-0.59 1.271-0.545 0.363-0.635 0.363-1.589-0.091l-0.999-0.499-0.726 0.454c-0.409 0.25-0.885 0.454-1.067 0.454-0.635 0-1.157-0.726-1.157-1.634 0-0.84 0.023-0.862 0.635-0.704 0.34 0.113 1.43 0.182 2.428 0.182zM24.533 28.596c0.227 0 0.431-0.136 0.431-0.318 0-0.25 0.136-0.227 0.794 0.068 0.431 0.204 0.772 0.431 0.794 0.499 0 0.068-0.25 0.409-0.567 0.749-0.749 0.817-2.156 0.84-2.95 0.023-0.726-0.704-0.704-0.84 0.182-1.248 0.567-0.272 0.749-0.272 0.794-0.068 0.045 0.159 0.272 0.295 0.522 0.295z"></path>
<path d="M21.492 21.288c-0.499 0.545-0.499 1.407-0.023 1.407 0.204 0 0.409-0.204 0.477-0.454s0.318-0.454 0.567-0.454c0.25 0 0.499 0.204 0.567 0.454 0.182 0.635 0.749 0.567 0.749-0.091 0-1.157-1.566-1.725-2.338-0.862z"></path>
<path d="M25.577 21.152c-0.522 0.409-0.613 1.384-0.136 1.498 0.227 0.045 0.431-0.113 0.499-0.409 0.159-0.613 0.976-0.59 1.135 0.023 0.159 0.545 0.681 0.477 0.794-0.113 0.204-0.976-1.407-1.657-2.292-0.999z"></path>
<path d="M10.667 25.759c0 0.182 0.159 0.34 0.34 0.34s0.34-0.159 0.34-0.34c0-0.182-0.159-0.34-0.34-0.34s-0.34 0.159-0.34 0.34z"></path>
<path d="M10.667 28.255c0 0.182 0.159 0.34 0.34 0.34s0.34-0.159 0.34-0.34c0-0.182-0.159-0.34-0.34-0.34s-0.34 0.159-0.34 0.34z"></path>
</symbol>
<symbol id="icon-acc-add" viewBox="0 0 32 32">
<path d="M16 0c-8.822 0-16 7.178-16 16s7.178 16 16 16c8.822 0 16-7.178 16-16s-7.178-16-16-16zM16 2.462c7.492 0 13.538 6.047 13.538 13.538s-6.047 13.538-13.539 13.538c-7.492 0-13.538-6.047-13.538-13.539s6.047-13.538 13.538-13.538zM14.769 8.615v6.154h-6.154v2.462h6.154v6.154h2.462v-6.154h6.154v-2.462h-6.154v-6.154h-2.462z"></path>
</symbol>
<symbol id="icon-acc-data" viewBox="0 0 32 32">
<path stroke-linejoin="round" stroke-linecap="round" stroke-miterlimit="4" stroke-width="1.8462" d="M25.337 27.667c0.354 0 0.693-0.141 0.943-0.391s0.391-0.589 0.391-0.943v-1.661c0.005-3.741-5.299-6.672-10.667-6.672s-10.667 2.931-10.667 6.672v1.661c0 0.354 0.14 0.693 0.391 0.943s0.589 0.391 0.943 0.391h18.667zM20.808 9.139c0 0.631-0.124 1.256-0.366 1.839s-0.595 1.113-1.042 1.559c-0.446 0.446-0.976 0.8-1.559 1.042s-1.208 0.366-1.839 0.366c-0.631 0-1.256-0.124-1.839-0.366s-1.113-0.595-1.559-1.042c-0.446-0.446-0.8-0.976-1.042-1.559s-0.366-1.208-0.366-1.839c0-1.274 0.506-2.497 1.407-3.398s2.123-1.407 3.398-1.407c1.274 0 2.497 0.506 3.398 1.407s1.407 2.123 1.407 3.398z"></path>
</symbol>
<symbol id="icon-acc-log" viewBox="0 0 32 32">
<path d="M22 12c0 1.591-0.632 3.117-1.757 4.243s-2.651 1.757-4.243 1.757c-1.591 0-3.117-0.632-4.243-1.757s-1.757-2.651-1.757-4.243c0-1.591 0.632-3.117 1.757-4.243s2.651-1.757 4.243-1.757c1.591 0 3.117 0.632 4.243 1.757s1.757 2.651 1.757 4.243z"></path>
<path d="M0 16c0-4.243 1.686-8.313 4.686-11.314s7.070-4.686 11.314-4.686c4.243 0 8.313 1.686 11.314 4.686s4.686 7.070 4.686 11.314-1.686 8.313-4.686 11.314c-3.001 3.001-7.070 4.686-11.314 4.686s-8.313-1.686-11.314-4.686c-3.001-3.001-4.686-7.070-4.686-11.314zM16 2c-2.636 0-5.219 0.745-7.451 2.148s-4.022 3.408-5.165 5.784c-1.143 2.376-1.591 5.026-1.294 7.646s1.328 5.102 2.974 7.162c1.42-2.288 4.546-4.74 10.936-4.74s9.514 2.45 10.936 4.74c1.646-2.060 2.677-4.542 2.974-7.162s-0.151-5.27-1.294-7.646c-1.143-2.376-2.933-4.381-5.165-5.784s-4.815-2.148-7.451-2.148z"></path>
</symbol>
<symbol id="icon-acc-photo-add" viewBox="0 0 32 32">
<path d="M2.586 30.364c-0.737 0-1.352-0.246-1.845-0.737s-0.74-1.105-0.741-1.842v-17.185c0-0.735 0.247-1.349 0.741-1.84s1.109-0.738 1.845-0.739h4.731l2.186-2.37c0.235-0.253 0.519-0.453 0.853-0.6 0.332-0.148 0.68-0.222 1.045-0.222h6.384c0.227 0 0.418 0.077 0.571 0.23s0.23 0.343 0.23 0.57c0 0.227-0.077 0.416-0.23 0.568s-0.343 0.228-0.57 0.228h-6.816l-2.95 3.192h-5.434c-0.288 0-0.524 0.092-0.709 0.276s-0.277 0.42-0.277 0.707v17.187c0 0.286 0.092 0.521 0.277 0.705s0.421 0.276 0.709 0.276h23.63c0.287 0 0.523-0.092 0.707-0.276s0.277-0.42 0.277-0.707v-11.97c0-0.226 0.077-0.415 0.23-0.568s0.344-0.23 0.571-0.23 0.417 0.077 0.57 0.23c0.152 0.153 0.229 0.343 0.229 0.568v11.97c0 0.735-0.247 1.349-0.741 1.84s-1.108 0.738-1.843 0.739h-23.63zM27.2 6.424h-2.4c-0.227 0-0.417-0.077-0.57-0.23s-0.229-0.343-0.23-0.57c-0.001-0.227 0.076-0.416 0.23-0.568s0.345-0.228 0.57-0.228h2.4v-2.394c0-0.227 0.077-0.416 0.23-0.568s0.344-0.229 0.571-0.23c0.227-0.001 0.417 0.076 0.57 0.23s0.229 0.344 0.229 0.568v2.394h2.4c0.227 0 0.417 0.077 0.57 0.23s0.229 0.343 0.23 0.57c0.001 0.227-0.076 0.416-0.23 0.568s-0.345 0.228-0.57 0.228h-2.4v2.394c0 0.227-0.077 0.416-0.23 0.568s-0.344 0.229-0.571 0.23c-0.227 0.001-0.417-0.076-0.57-0.23s-0.229-0.344-0.229-0.568v-2.394zM14.4 25.145c1.671 0 3.084-0.575 4.238-1.725s1.731-2.559 1.731-4.228c0-1.668-0.577-3.078-1.731-4.228s-2.567-1.726-4.238-1.727c-1.671-0.001-3.084 0.575-4.238 1.727s-1.731 2.562-1.731 4.228c0 1.666 0.577 3.075 1.731 4.228s2.567 1.728 4.238 1.727zM14.4 23.55c-1.243 0-2.282-0.417-3.117-1.25s-1.253-1.869-1.253-3.109c0-1.24 0.418-2.276 1.253-3.109s1.874-1.25 3.117-1.25c1.243 0 2.282 0.417 3.117 1.25s1.253 1.869 1.253 3.109c0 1.24-0.418 2.276-1.253 3.109s-1.874 1.25-3.117 1.25z"></path>
</symbol>
<symbol id="icon-acc-photo-del" viewBox="0 0 32 32">
<path d="M16 0c8.837 0 16 7.157 16 15.985s-7.163 15.985-16 15.985-16-7.157-16-15.985c0-8.829 7.163-15.985 16-15.985zM16 2.23c-3.652 0-7.153 1.449-9.735 4.029s-4.033 6.078-4.033 9.727c0 3.648 1.451 7.147 4.033 9.727s6.084 4.029 9.735 4.029 7.153-1.449 9.735-4.029c2.582-2.58 4.033-6.078 4.033-9.727s-1.451-7.147-4.033-9.727c-2.582-2.58-6.084-4.029-9.735-4.029zM23.341 14.895c0.143 0 0.285 0.028 0.418 0.083s0.253 0.135 0.354 0.236c0.101 0.101 0.182 0.221 0.237 0.354s0.083 0.274 0.083 0.417-0.028 0.285-0.083 0.417c-0.055 0.132-0.135 0.252-0.237 0.354s-0.222 0.182-0.354 0.236c-0.132 0.055-0.274 0.083-0.418 0.083h-13.512c-0.289 0-0.567-0.115-0.772-0.319s-0.32-0.482-0.32-0.771c0-0.289 0.115-0.566 0.32-0.771s0.482-0.319 0.772-0.319h13.512z"></path>
</symbol>
<symbol id="icon-acc-portfolio" viewBox="0 0 32 32">
<path d="M22 16c0-3.32-2.68-6-6-6s-6 2.68-6 6c0 3.32 2.68 6 6 6s6-2.68 6-6zM20 16c0 0.525-0.103 1.046-0.304 1.531s-0.496 0.927-0.867 1.298c-0.75 0.751-1.768 1.172-2.829 1.173-0.525 0-1.046-0.103-1.531-0.304s-0.927-0.496-1.298-0.867c-0.751-0.75-1.172-1.768-1.173-2.829s0.421-2.079 1.171-2.829 1.768-1.172 2.829-1.173c1.061-0 2.079 0.421 2.829 1.171s1.172 1.768 1.173 2.829z"></path>
<path d="M2.339 7.24h-0.020c-0.417 0.321-0.787 0.691-1.108 1.108-1.24 1.62-1.24 3.96-1.24 8.66s0 7.044 1.24 8.66c0.319 0.416 0.692 0.789 1.108 1.108 1.62 1.24 3.96 1.24 8.66 1.24h10c4.7 0 7.044 0 8.66-1.24 0.417-0.321 0.787-0.691 1.108-1.108 1.24-1.62 1.24-3.96 1.24-8.66s0-7.044-1.24-8.66c-0.321-0.417-0.691-0.787-1.108-1.108-1.3-0.996-3.060-1.19-6.14-1.23l-1.33-2.12c-0.74-1.17-2.020-1.88-3.4-1.88h-5.56c-0.68-0.001-1.349 0.171-1.944 0.499s-1.096 0.804-1.456 1.381l-1.33 2.12c-3.080 0.038-4.842 0.234-6.14 1.23zM21.799 7.070c0.36 0.578 0.99 0.932 1.672 0.94 3.18 0.040 4.26 0.286 4.96 0.818 0.28 0.213 0.526 0.459 0.738 0.738 0.308 0.4 0.55 0.984 0.684 2.18 0.14 1.236 0.142 2.86 0.142 5.26s-0.002 4.020-0.142 5.26c-0.134 1.196-0.376 1.778-0.684 2.18-0.213 0.28-0.459 0.526-0.738 0.738-0.402 0.308-0.984 0.55-2.18 0.684-1.236 0.14-2.86 0.142-5.26 0.142h-10c-2.4 0-4.020-0.004-5.26-0.142-1.196-0.136-1.778-0.376-2.18-0.684-0.277-0.213-0.525-0.462-0.738-0.74-0.308-0.4-0.55-0.982-0.684-2.18-0.14-1.234-0.142-2.86-0.142-5.26s0.002-4.020 0.142-5.26c0.134-1.194 0.376-1.776 0.684-2.18 0.213-0.277 0.459-0.523 0.738-0.736 0.692-0.53 1.77-0.78 4.96-0.82 0.335-0.004 0.664-0.092 0.956-0.256s0.538-0.399 0.716-0.684l1.33-2.12c0.18-0.288 0.43-0.525 0.726-0.689s0.63-0.251 0.97-0.251h5.56c0.339 0 0.673 0.086 0.97 0.251s0.547 0.402 0.726 0.689l1.33 2.12 0.004 0.002z"></path>
</symbol>
<symbol id="icon-acc-recicle" viewBox="0 0 32 32">
<path d="M10.418 1.106c0.339-0.681 1.037-1.106 1.798-1.106h7.568c0.76 0 1.458 0.425 1.798 1.106l0.453 0.894h6.034c1.113 0 2.011 0.894 2.011 2s-0.899 2-2.011 2h-24.137c-1.113 0-2.011-0.894-2.011-2s0.899-2 2.011-2h6.034l0.453-0.894zM3.931 8h24.137v20c0 2.206-1.804 4-4.023 4h-16.091c-2.219 0-4.023-1.794-4.023-4v-20zM9.966 12c-0.553 0-1.006 0.45-1.006 1v14c0 0.55 0.453 1 1.006 1s1.006-0.45 1.006-1v-14c0-0.55-0.453-1-1.006-1zM16 12c-0.553 0-1.006 0.45-1.006 1v14c0 0.55 0.453 1 1.006 1s1.006-0.45 1.006-1v-14c0-0.55-0.453-1-1.006-1zM22.034 12c-0.553 0-1.006 0.45-1.006 1v14c0 0.55 0.452 1 1.006 1s1.006-0.45 1.006-1v-14c0-0.55-0.453-1-1.006-1z"></path>
</symbol>
<symbol id="icon-acc-services" viewBox="0 0 32 32">
<path stroke-linejoin="miter" stroke-linecap="butt" stroke-miterlimit="4" stroke-width="1.2308" d="M5.532 22.705h0.013c0.228 0 0.449 0.080 0.624 0.224l0.072 0.065c0.185 0.185 0.288 0.436 0.288 0.698 0 0.229-0.080 0.45-0.224 0.626l-0.065 0.072c-0.185 0.185-0.435 0.29-0.696 0.29h-0.013c-0.261-0-0.511-0.105-0.696-0.29s-0.288-0.436-0.288-0.698c0-0.262 0.104-0.513 0.288-0.698s0.435-0.288 0.696-0.288zM10.639 23.346h15.361c0.091 0 0.178 0.036 0.243 0.101s0.102 0.153 0.102 0.245c0 0.092-0.037 0.18-0.102 0.245s-0.152 0.101-0.243 0.101h-15.361c-0.091-0-0.178-0.036-0.243-0.101s-0.101-0.153-0.101-0.245c0-0.092 0.036-0.18 0.101-0.245s0.152-0.101 0.243-0.101zM5.532 15.013h0.013c0.228 0 0.449 0.080 0.624 0.223l0.072 0.065c0.185 0.185 0.288 0.436 0.288 0.698 0 0.229-0.080 0.45-0.224 0.626l-0.065 0.072c-0.185 0.185-0.435 0.29-0.696 0.29h-0.013c-0.542-0-0.984-0.442-0.984-0.988s0.442-0.987 0.984-0.987zM10.639 15.653h15.361c0.068 0 0.135 0.021 0.191 0.059l0.052 0.042c0.065 0.065 0.102 0.153 0.102 0.245 0 0.069-0.021 0.136-0.059 0.192l-0.043 0.053c-0.065 0.065-0.152 0.101-0.243 0.101h-15.361c-0.068-0-0.134-0.020-0.19-0.058l-0.053-0.043c-0.065-0.065-0.101-0.153-0.101-0.245 0-0.069 0.020-0.136 0.058-0.192l0.043-0.053c0.065-0.065 0.152-0.101 0.243-0.101zM5.532 7.321h0.013c0.228 0 0.449 0.080 0.624 0.224l0.072 0.065c0.185 0.185 0.288 0.436 0.288 0.698 0 0.229-0.080 0.451-0.224 0.626l-0.065 0.072c-0.185 0.185-0.435 0.29-0.696 0.29h-0.013c-0.261-0-0.511-0.105-0.696-0.29s-0.288-0.436-0.288-0.698l0.005-0.097c0.019-0.194 0.096-0.377 0.219-0.528l0.065-0.073c0.162-0.162 0.374-0.261 0.599-0.284l0.097-0.005zM10.639 7.961h15.361c0.091 0 0.178 0.036 0.243 0.101s0.102 0.153 0.102 0.245c0 0.069-0.021 0.136-0.059 0.192l-0.043 0.053c-0.065 0.065-0.152 0.101-0.243 0.101h-15.361c-0.068-0-0.134-0.020-0.19-0.058l-0.053-0.043c-0.065-0.065-0.101-0.153-0.101-0.245s0.036-0.18 0.101-0.245c0.065-0.065 0.152-0.101 0.243-0.101z"></path>
</symbol>
<symbol id="icon-acc-settings" viewBox="0 0 32 32">
<path stroke-linejoin="round" stroke-linecap="round" stroke-miterlimit="4" stroke-width="2.4615" d="M15.528 27.953c-0.429-0.081-0.824-0.286-1.137-0.59s-0.53-0.693-0.624-1.119c-0.085-0.352-0.252-0.678-0.488-0.953s-0.532-0.49-0.867-0.629c-0.334-0.138-0.697-0.196-1.057-0.168s-0.71 0.141-1.019 0.329c-2.057 1.253-4.413-1.101-3.16-3.16 0.188-0.309 0.301-0.658 0.329-1.018s-0.030-0.723-0.168-1.057c-0.138-0.334-0.354-0.631-0.628-0.866s-0.601-0.402-0.952-0.488c-2.341-0.568-2.341-3.899 0-4.467 0.352-0.085 0.678-0.252 0.953-0.488s0.49-0.532 0.629-0.867c0.139-0.334 0.196-0.697 0.168-1.057s-0.141-0.71-0.329-1.019c-1.253-2.057 1.101-4.413 3.16-3.16 1.333 0.811 3.061 0.093 3.429-1.42 0.568-2.341 3.899-2.341 4.467 0 0.085 0.352 0.252 0.678 0.488 0.953s0.532 0.49 0.867 0.629c0.334 0.139 0.697 0.196 1.057 0.168s0.71-0.141 1.019-0.329c2.057-1.253 4.413 1.101 3.16 3.16-0.188 0.309-0.301 0.658-0.329 1.018s0.030 0.723 0.168 1.057c0.138 0.334 0.354 0.631 0.628 0.866s0.601 0.402 0.952 0.488c0.971 0.236 1.539 0.947 1.705 1.737"></path>
<path stroke-linejoin="round" stroke-linecap="round" stroke-miterlimit="4" stroke-width="2.4615" d="M19.979 15.592c-0.077-0.752-0.366-1.468-0.833-2.063s-1.093-1.045-1.806-1.299c-0.713-0.253-1.483-0.3-2.22-0.133s-1.413 0.539-1.948 1.074c-0.535 0.535-0.907 1.21-1.074 1.948s-0.12 1.508 0.133 2.22c0.253 0.713 0.704 1.339 1.299 1.806s1.31 0.756 2.063 0.833M26.933 26.933l2.4 2.4M19.999 24c0 1.061 0.422 2.078 1.172 2.828s1.768 1.172 2.828 1.172c1.061 0 2.078-0.421 2.828-1.172s1.172-1.767 1.172-2.828c0-1.061-0.421-2.078-1.172-2.828s-1.767-1.172-2.828-1.172c-1.061 0-2.078 0.421-2.828 1.172s-1.172 1.767-1.172 2.828z"></path>
</symbol>
<symbol id="icon-writer" viewBox="0 0 32 32">
<path stroke-linejoin="round" stroke-linecap="round" stroke-miterlimit="4" stroke-width="3.2" d="M16 28.994h14.4M22.4 3.394c0.636-0.636 1.5-0.994 2.4-0.994s1.764 0.358 2.4 0.994c0.636 0.636 0.994 1.5 0.994 2.4s-0.358 1.764-0.994 2.4l-19.2 19.2-6.4 1.6 1.6-6.4 19.2-19.2z"></path>
</symbol>
</defs>
</svg>
