<svg aria-hidden="true" style="position: absolute; width: 0; height: 0; overflow: hidden;" version="1.1" xmlns="http://www.w3.org/2000/svg" xmlns:xlink="http://www.w3.org/1999/xlink">
  <defs>
  <symbol id="icon-close" viewBox="0 0 32 32">
    <path fill="#b74c00" style="fill: var(--color1, #b74c00)" d="M29.845 2.754l-2.748-2.754-12.174 12.218-12.174-12.218-2.748 2.754 12.194 12.199-12.194 12.199 2.748 2.754 12.174-12.218 12.174 12.218 2.748-2.754-12.194-12.199 12.194-12.199z"></path>
  </symbol>
  <symbol id="icon-vector" viewBox="0 0 32 32">
<path fill="#b74c00" style="fill: var(--color1, #b74c00)" d="M29.861 4.818l-2.519-2.524-11.16 11.2-11.16-11.2-2.519 2.524 11.177 11.182-11.177 11.182 2.519 2.524 11.16-11.2 11.16 11.2 2.519-2.524-11.178-11.182 11.178-11.182z"></path>
</symbol>
    <symbol id="icon-google-auth" viewBox="0 0 32 32">
      <path stroke-linejoin="miter" stroke-linecap="butt" stroke-miterlimit="4" stroke-width="2" d="M21.494 10.236c-1.472-1.31-3.375-2.031-5.346-2.025-4.382 0-7.938 3.479-7.938 7.77s3.554 7.77 7.939 7.77c5.392 0 7.383-3.994 7.601-7.122h-6.463"></path>
      <path stroke-linejoin="round" stroke-linecap="round" stroke-miterlimit="4" stroke-width="2" d="M29.967 9.765v12.432c0 2.061-0.819 4.037-2.276 5.494s-3.433 2.276-5.494 2.276h-12.432c-2.061 0-4.037-0.819-5.494-2.276s-2.276-3.433-2.276-5.494v-12.432c0-2.061 0.819-4.037 2.276-5.494s3.433-2.276 5.494-2.276h12.432c2.061 0 4.037 0.819 5.494 2.276s2.276 3.433 2.276 5.494z"></path>
    </symbol>
  </defs>
</svg>
