<svg xmlns="http://www.w3.org/2000/svg" aria-hidden="true" style="position:absolute;width:0;height:0;overflow:hidden">
  <defs>
    <symbol id="icon-logo" viewBox="0 0 50 32">
      <path fill="#f9f9f9" d="M20.686 0c-.659 0-1.626.19-2.457.787-.879.635-1.538 1.684-1.538 3.208v2.503c.007.349.115.688.312.977.188.262.511.519 1.184.519s.997-.258 1.184-.519c.196-.288.305-.628.312-.977a1.001 1.001 0 0 1 1.705-.706.998.998 0 0 1 .292.706c0 .577-.164 1.418-.687 2.143-.559.779-1.482 1.35-2.806 1.35a3.698 3.698 0 0 1-1.646-.359c-.286 2.221-1.118 5.205-3.553 7.637-2.169 2.171-3.234 4.859-3.757 6.956a18.548 18.548 0 0 0-.519 3.427l-.008.22v.062l-.002.02v.008l-.004.058a2.548 2.548 0 0 1-.03.246c-.04.259-.12.511-.236.747a1.595 1.595 0 0 1-.549.647c-.24.16-.603.3-1.178.3a4 4 0 0 1-3.79-2.731 3.995 3.995 0 0 1 1.393-4.459 1.005 1.005 0 0 0 .367-1.048.993.993 0 0 0-.459-.611.987.987 0 0 0-.757-.107.993.993 0 0 0-.351.169 5.996 5.996 0 0 0-2.089 6.689 5.99 5.99 0 0 0 5.686 4.096h15.978v-.999c0-.809-.376-2.089-1.464-2.66a3.189 3.189 0 0 0-1.532-.335H17.69a1.001 1.001 0 0 1-.706-1.705.998.998 0 0 1 .706-.292h1.997c.352 0 .684.027.999.08v-5.073a1.001 1.001 0 0 1 1.705-.706 1 1 0 0 1 .293.706v5.888c1.578 1.138 1.997 3.032 1.997 4.098v.999h4.993a1.001 1.001 0 0 0 .999-.999c0-1.738-.591-3.042-1.608-3.889a4.86 4.86 0 0 0-2.387-1.029V9.988h.999a2.996 2.996 0 0 0 2.995-2.995V4.562a1.992 1.992 0 0 0-.969-1.711L26.142.714a4.998 4.998 0 0 0-2.568-.711h-2.888z" style="fill:var(--color1, #f9f9f9)"/>
      <path fill="#f9f9f9" d="M44.404 31.877h1.54a3.984 3.984 0 0 0 3.662-2.401 3.994 3.994 0 0 0-.746-4.315l-1.204-1.292a3.288 3.288 0 0 1 .078-4.568l1.183-1.183a.753.753 0 0 0-.009-1.059.753.753 0 0 0-1.059-.009l-1.182 1.183a4.8 4.8 0 0 0-.115 6.667l1.204 1.292a2.486 2.486 0 0 1-.453 3.767 2.487 2.487 0 0 1-1.359.408h-.76c.003-.308.001-.695-.012-1.136-.039-1.148-.166-2.694-.529-4.252-.363-1.549-.97-3.17-2.01-4.418-.926-1.112-2.185-1.911-3.841-2.097v-4.436a3.307 3.307 0 0 0-3.305-3.303c-.768 0-1.39.624-1.39 1.393v.73h-1.779c-.997 0-1.921.515-2.446 1.363l-.657 1.061c-1.15 1.857.103 4.237 2.229 4.39v9.87a2.347 2.347 0 0 0 2.347 2.348h.836v-2.348a3.943 3.943 0 0 1 3.94-3.941h1.327a.757.757 0 0 1 .755.755.757.757 0 0 1-.755.755h-1.327a2.43 2.43 0 0 0-2.428 2.43v2.348h8.266z" style="fill:var(--color1, #f9f9f9)"/>
    </symbol>
    <symbol id="icon-viber" viewBox="0 0 32 32">
      <path fill="#fff" d="M20.859 15.205c.016-1.989-1.625-3.813-3.659-4.065l-.133-.02a1.886 1.886 0 0 0-.309-.035c-.417 0-.528.301-.557.481a.577.577 0 0 0 .08.438c.139.193.381.227.576.256.057.008.112.015.156.027 1.828.42 2.444 1.083 2.744 2.953.008.047.011.103.013.163.013.223.041.688.527.688a.73.73 0 0 0 .128-.011c.452-.071.437-.496.431-.7a1.218 1.218 0 0 1 0-.148l.003-.027.001-.001z" style="fill:var(--color2, #fff)"/>
      <path fill="#fff" d="M16.641 10.409c.053.004.107.008.148.015 3 .477 4.381 1.944 4.764 5.067.007.053.007.117.008.187.004.244.012.751.54.761h.016a.518.518 0 0 0 .392-.153c.164-.177.153-.44.144-.653a1.805 1.805 0 0 1-.004-.143c.037-3.193-2.64-6.089-5.731-6.196l-.037.001a.219.219 0 0 1-.036.003c-.031 0-.069-.003-.109-.005a1.714 1.714 0 0 0-.16-.008c-.492 0-.585.36-.597.576-.027.497.439.533.663.549zm4.766 9.116a9.132 9.132 0 0 1-.191-.153c-.328-.272-.677-.523-1.013-.765l-.211-.152c-.432-.312-.82-.465-1.187-.465-.493 0-.924.283-1.28.839-.157.245-.349.365-.584.365a1.138 1.138 0 0 1-.471-.121c-1.393-.653-2.389-1.653-2.959-2.973-.275-.64-.187-1.056.299-1.396.275-.192.787-.551.751-1.237-.04-.78-1.708-3.127-2.411-3.393-.3-.113-.63-.114-.931-.003-.807.28-1.387.773-1.676 1.423-.28.629-.267 1.367.037 2.135.876 2.221 2.107 4.157 3.661 5.755 1.52 1.564 3.389 2.844 5.555 3.807.195.087.4.133.549.168l.127.032a.189.189 0 0 0 .053.008h.017c1.019 0 2.241-.96 2.617-2.056.329-.96-.272-1.433-.755-1.813v-.001zm-4.316-6.579c-.173.004-.537.013-.665.395-.059.179-.052.333.021.46.108.187.316.244.504.275.683.113 1.035.504 1.104 1.227.033.339.253.573.536.573a.685.685 0 0 0 .064-.003c.34-.043.504-.3.489-.767.005-.488-.241-1.04-.661-1.48-.421-.443-.929-.692-1.392-.68z" style="fill:var(--color2, #fff)"/>
      <path fill="#fff" d="M8.001 5.333A2.668 2.668 0 0 0 5.334 8v16a2.668 2.668 0 0 0 2.667 2.667h16A2.668 2.668 0 0 0 26.668 24V8a2.668 2.668 0 0 0-2.667-2.667h-16zm0-2.667h16a5.334 5.334 0 0 1 5.333 5.333v16a5.332 5.332 0 0 1-5.333 5.333h-16a5.334 5.334 0 0 1-5.333-5.333v-16a5.334 5.334 0 0 1 5.333-5.333z" style="fill:var(--color2, #fff)"/>
    </symbol>
    <symbol id="icon-facebook" viewBox="0 0 33 32">
      <path fill="none" stroke="#fff" stroke-linecap="round" stroke-linejoin="round" stroke-width="5.12" d="M2.85 30.666a1.51 1.51 0 0 1-1.036-.416 1.395 1.395 0 0 1-.427-.999V2.748c0-.782.655-1.415 1.464-1.415h27.58c.808 0 1.463.633 1.463 1.415v26.503c.001.185-.037.369-.11.54s-.181.327-.317.459-.297.236-.475.307a1.518 1.518 0 0 1-.561.109H2.852z" style="stroke:var(--color2, #fff)"/>
      <path fill="#fff" d="M26.805 11.925h-3.376c-.449 0-.88.172-1.198.477s-.496.72-.497 1.152v3.26h5.07l-.743 4.888h-4.328v8.965h-5.576v-8.965h-4.604v-4.887h4.544l.06-4.639-.017-1.663c-.006-.562.105-1.119.324-1.639s.544-.994.955-1.393c.411-.399.9-.716 1.439-.932s1.117-.328 1.702-.328h6.242v5.704z" style="fill:var(--color2, #fff)"/>
    </symbol>
    <symbol id="icon-instagram" viewBox="0 0 33 32">
      <path fill="#f8f8f8" d="M16.616 0C12.1 0 11.537.021 9.769.093 7.994.177 6.794.442 5.735.838a8.178 8.178 0 0 0-2.942 1.849A7.735 7.735 0 0 0 .873 5.52C.462 6.54.187 7.696.099 9.405c-.08 1.703-.097 2.244-.097 6.593s.022 4.891.097 6.593c.087 1.704.362 2.865.774 3.885a7.843 7.843 0 0 0 1.92 2.833 8.085 8.085 0 0 0 2.942 1.849c1.059.391 2.265.661 4.034.745 1.768.077 2.33.093 6.847.093s5.079-.021 6.847-.093c1.77-.084 2.975-.355 4.034-.745a8.178 8.178 0 0 0 2.942-1.849 7.69 7.69 0 0 0 1.92-2.833c.406-1.02.686-2.181.774-3.885.08-1.703.097-2.244.097-6.593s-.022-4.891-.097-6.593c-.087-1.704-.369-2.871-.774-3.885a7.822 7.822 0 0 0-1.92-2.833A8.042 8.042 0 0 0 27.497.838C26.438.442 25.232.177 23.463.093 21.695.016 21.133 0 16.616 0zm0 2.88c4.435 0 4.965.021 6.718.093 1.617.073 2.497.333 3.082.553a5.207 5.207 0 0 1 1.915 1.197 4.91 4.91 0 0 1 1.238 1.839c.228.563.498 1.411.574 2.968.075 1.688.097 2.199.097 6.469s-.022 4.781-.103 6.469c-.087 1.557-.357 2.405-.585 2.968a5.198 5.198 0 0 1-1.245 1.844 5.26 5.26 0 0 1-1.915 1.192c-.577.22-1.47.48-3.094.553-1.762.072-2.281.093-6.728.093s-4.965-.021-6.729-.099c-1.617-.084-2.509-.344-3.094-.563-.789-.303-1.33-.641-1.91-1.199-.585-.563-.956-1.099-1.243-1.844-.233-.556-.498-1.416-.585-2.979-.059-1.677-.087-2.197-.087-6.459 0-4.26.028-4.781.087-6.479.086-1.563.352-2.421.585-2.979.287-.761.659-1.281 1.243-1.844.578-.557 1.12-.917 1.91-1.199.585-.219 1.455-.479 3.078-.557 1.762-.061 2.281-.083 6.722-.083l.069.046zm0 4.907c-1.12 0-2.229.212-3.264.624s-1.975 1.018-2.767 1.78c-.792.763-1.42 1.668-1.849 2.665s-.649 2.065-.648 3.143c0 1.079.22 2.147.648 3.143s1.057 1.902 1.849 2.665 1.732 1.368 2.767 1.78a8.85 8.85 0 0 0 6.528 0c1.035-.413 1.975-1.018 2.768-1.78s1.42-1.668 1.849-2.665a7.946 7.946 0 0 0 0-6.286c-.429-.997-1.057-1.902-1.849-2.665s-1.733-1.368-2.767-1.78-2.144-.625-3.264-.624zm0 13.546c-3.061 0-5.538-2.385-5.538-5.333s2.477-5.333 5.538-5.333c3.061 0 5.538 2.385 5.538 5.333s-2.477 5.333-5.538 5.333zM27.482 7.459c-.001.51-.211.998-.586 1.358s-.882.563-1.411.563c-.262 0-.521-.05-.763-.146s-.461-.238-.647-.416c-.185-.178-.332-.39-.432-.623a1.86 1.86 0 0 1 .432-2.091c.185-.179.405-.32.647-.416a2.07 2.07 0 0 1 .763-.146c1.098 0 1.997.86 1.997 1.917z" style="fill:var(--color3, #f8f8f8)"/>
    </symbol>
  </defs>
</svg>
